<svg width="30" height="42" viewBox="0 0 30 42" fill="none" xmlns="http://www.w3.org/2000/svg">
<path fill-rule="evenodd" clip-rule="evenodd" d="M28.2938 21.9547C29.3836 19.8759 30.0001 17.5099 30.0001 15C30.0001 6.71573 23.2843 0 15.0001 0C6.71579 0 7.16412e-05 6.71571 5.25713e-05 15H0C0 15.1006 0.00100885 15.2011 0.0030211 15.3014C0.0499061 17.68 0.650432 19.9228 1.68104 21.9063C2.32645 23.1536 3.14879 24.3145 4.13249 25.35L6.91648 28.2805C8.62935 30.0835 10.0653 32.1306 11.1776 34.355L14.523 41.0457C14.9059 41.8114 16.0113 41.7733 16.3405 40.9831L18.8231 35.0246C19.9317 32.364 21.5177 29.9287 23.503 27.839L25.8675 25.35C26.8385 24.3279 27.6522 23.1836 28.2938 21.9547Z" fill="#EA5455"/>
<path d="M28 15C28 22.1797 22.1797 28 15 28C7.8203 28 2 22.1797 2 15C2 7.8203 7.8203 2 15 2C22.1797 2 28 7.8203 28 15Z" fill="white"/>
<path d="M17.3949 9.01812C16.7868 8.36156 15.9374 8 14.9999 8C14.0574 8 13.2052 8.35937 12.5999 9.01187C11.9881 9.67156 11.6899 10.5681 11.7599 11.5362C11.8987 13.4462 13.3521 15 14.9999 15C16.6477 15 18.0987 13.4466 18.2396 11.5369C18.3106 10.5775 18.0106 9.68281 17.3949 9.01812V9.01812ZM20.4999 22H9.49993C9.35595 22.0019 9.21337 21.9716 9.08255 21.9115C8.95173 21.8513 8.83597 21.7627 8.74368 21.6522C8.54056 21.4094 8.45868 21.0778 8.51931 20.7425C8.78306 19.2794 9.60618 18.0503 10.8999 17.1875C12.0493 16.4216 13.5052 16 14.9999 16C16.4946 16 17.9506 16.4219 19.0999 17.1875C20.3937 18.05 21.2168 19.2791 21.4806 20.7422C21.5412 21.0775 21.4593 21.4091 21.2562 21.6519C21.1639 21.7625 21.0482 21.8511 20.9174 21.9113C20.7865 21.9715 20.6439 22.0018 20.4999 22V22Z" fill="#EA5455"/>
</svg>
