<svg width="30" height="42" viewBox="0 0 30 42" fill="none" xmlns="http://www.w3.org/2000/svg">
<path fill-rule="evenodd" clip-rule="evenodd" d="M28.2938 21.9547C29.3836 19.8759 30.0001 17.5099 30.0001 15C30.0001 6.71573 23.2843 0 15.0001 0C6.71579 0 7.16412e-05 6.71571 5.25713e-05 15H0C0 15.1006 0.00100885 15.2011 0.0030211 15.3014C0.0499061 17.68 0.650432 19.9228 1.68104 21.9063C2.32645 23.1536 3.14879 24.3145 4.13249 25.35L6.91648 28.2805C8.62935 30.0835 10.0653 32.1306 11.1776 34.355L14.523 41.0457C14.9059 41.8114 16.0113 41.7733 16.3405 40.9831L18.8231 35.0246C19.9317 32.364 21.5177 29.9287 23.503 27.839L25.8675 25.35C26.8385 24.3279 27.6522 23.1836 28.2938 21.9547Z" fill="#3CCF4E"/>
<path d="M28 15C28 22.1797 22.1797 28 15 28C7.8203 28 2 22.1797 2 15C2 7.8203 7.8203 2 15 2C22.1797 2 28 7.8203 28 15Z" fill="white"/>
<path d="M15.1737 10.165C15.1272 10.1205 15.0653 10.0957 15.0009 10.0957C14.9365 10.0957 14.8746 10.1205 14.8281 10.165L9.07495 15.661C9.05052 15.6844 9.03108 15.7124 9.01781 15.7435C9.00455 15.7746 8.99773 15.8081 8.99776 15.8419L8.99683 21C8.99683 21.2653 9.10218 21.5196 9.28972 21.7072C9.47726 21.8947 9.73161 22 9.99683 22H13C13.1326 22 13.2597 21.9474 13.3535 21.8536C13.4473 21.7598 13.5 21.6327 13.5 21.5V17.25C13.5 17.1837 13.5263 17.1202 13.5732 17.0733C13.6201 17.0264 13.6836 17 13.75 17H16.25C16.3163 17 16.3798 17.0264 16.4267 17.0733C16.4736 17.1202 16.5 17.1837 16.5 17.25V21.5C16.5 21.6327 16.5526 21.7598 16.6464 21.8536C16.7402 21.9474 16.8673 22 17 22H20.0018C20.267 22 20.5214 21.8947 20.7089 21.7072C20.8965 21.5196 21.0018 21.2653 21.0018 21V15.8419C21.0019 15.8081 20.995 15.7746 20.9818 15.7435C20.9685 15.7124 20.9491 15.6844 20.9246 15.661L15.1737 10.165Z" fill="#3CCF4E"/>
<path d="M22.3409 14.6297L20.0034 12.3934V9C20.0034 8.86739 19.9508 8.74021 19.857 8.64645C19.7632 8.55268 19.6361 8.5 19.5034 8.5H18.0034C17.8708 8.5 17.7437 8.55268 17.6499 8.64645C17.5561 8.74021 17.5034 8.86739 17.5034 9V10L15.6934 8.26937C15.5241 8.09812 15.2722 8 15 8C14.7288 8 14.4775 8.09813 14.3081 8.26969L7.66126 14.6291C7.46689 14.8166 7.44251 15.125 7.61939 15.3281C7.6638 15.3794 7.71819 15.4211 7.77923 15.4507C7.84027 15.4803 7.9067 15.4971 7.97446 15.5002C8.04223 15.5033 8.10991 15.4926 8.1734 15.4687C8.23689 15.4448 8.29485 15.4083 8.34376 15.3613L14.8281 9.165C14.8747 9.12049 14.9366 9.09565 15.0009 9.09565C15.0653 9.09565 15.1272 9.12049 15.1738 9.165L21.6588 15.3613C21.7543 15.4529 21.8822 15.5029 22.0146 15.5003C22.1469 15.4977 22.2728 15.4428 22.3647 15.3475C22.5566 15.1488 22.5406 14.8206 22.3409 14.6297Z" fill="#3CCF4E"/>
</svg>
